<svg width="151" height="106" viewBox="0 0 151 106" fill="none" xmlns="http://www.w3.org/2000/svg">
<path opacity="0.25" d="M117.096 100.514C116.86 101.013 117.073 101.609 117.573 101.845L125.71 105.691C126.209 105.927 126.805 105.714 127.041 105.214C127.277 104.715 127.064 104.119 126.564 103.883L119.332 100.464L122.75 93.2316C122.986 92.7323 122.773 92.1361 122.274 91.9001C121.774 91.6641 121.178 91.8776 120.942 92.3769L117.096 100.514ZM118 0.941039C117.663 1.8825 117.663 1.88237 117.662 1.88228C117.662 1.88231 117.662 1.88226 117.663 1.88232C117.663 1.88243 117.664 1.88272 117.665 1.88319C117.667 1.88411 117.672 1.88574 117.678 1.88807C117.691 1.89274 117.711 1.90025 117.739 1.91064C117.794 1.93143 117.878 1.96379 117.99 2.00818C118.212 2.09696 118.544 2.23384 118.969 2.42259C119.819 2.80016 121.042 3.38482 122.512 4.20657C125.455 5.85087 129.382 8.43924 133.307 12.2092C141.143 19.734 149 31.9843 149 50.941L151 50.941C151 31.3561 142.857 18.6064 134.693 10.7666C130.619 6.8543 126.545 4.16923 123.488 2.46067C121.958 1.60598 120.681 0.99435 119.781 0.594739C119.331 0.394897 118.975 0.247968 118.729 0.150085C118.607 0.10114 118.511 0.0644484 118.445 0.0395266C118.412 0.0270654 118.386 0.0175457 118.368 0.0109075C118.359 0.00758826 118.352 0.00498925 118.347 0.00310295C118.344 0.00215982 118.342 0.00139485 118.341 0.000807034C118.34 0.000513362 118.339 0.000204669 118.339 5.81611e-05C118.338 -0.000205768 118.337 -0.00042559 118 0.941039ZM149 50.941C149 69.8978 141.143 82.1481 133.307 89.6729C129.382 93.4428 125.455 96.0312 122.512 97.6755C121.042 98.4973 119.819 99.0819 118.969 99.4595C118.544 99.6482 118.212 99.7851 117.99 99.8739C117.878 99.9183 117.794 99.9506 117.739 99.9714C117.711 99.9818 117.691 99.9893 117.678 99.994C117.672 99.9963 117.667 99.998 117.665 99.9989C117.664 99.9994 117.663 99.9996 117.663 99.9998C117.662 99.9998 117.662 99.9998 117.662 99.9998C117.663 99.9997 117.663 99.9996 118 100.941C118.337 101.883 118.338 101.882 118.339 101.882C118.339 101.882 118.34 101.882 118.341 101.881C118.342 101.881 118.344 101.88 118.347 101.879C118.352 101.877 118.359 101.874 118.368 101.871C118.386 101.865 118.412 101.855 118.445 101.843C118.511 101.818 118.607 101.781 118.729 101.732C118.975 101.634 119.331 101.487 119.781 101.287C120.681 100.888 121.958 100.276 123.488 99.4214C126.545 97.7129 130.619 95.0278 134.693 91.1154C142.857 83.2757 151 70.526 151 50.941L149 50.941Z" fill="#6A3EA1"/>
</svg>
