<svg width="26" height="26" viewBox="0 0 26 26" fill="none" xmlns="http://www.w3.org/2000/svg">
<path fill-rule="evenodd" clip-rule="evenodd" d="M15.1828 1.87351C14.5763 -0.624502 11.0237 -0.624503 10.4172 1.87351C10.0255 3.48719 8.17672 4.25298 6.75866 3.38894C4.56349 2.0514 2.0514 4.56349 3.38894 6.75866C4.25298 8.17672 3.48719 10.0255 1.87351 10.4172C-0.624503 11.0237 -0.624502 14.5763 1.87351 15.1828C3.48719 15.5745 4.25298 17.4233 3.38894 18.8413C2.0514 21.0365 4.56349 23.5486 6.75866 22.2111C8.17672 21.347 10.0255 22.1128 10.4172 23.7265C11.0237 26.2245 14.5763 26.2245 15.1828 23.7265C15.5745 22.1128 17.4233 21.347 18.8413 22.2111C21.0365 23.5486 23.5486 21.0365 22.2111 18.8413C21.347 17.4233 22.1128 15.5745 23.7265 15.1828C26.2245 14.5763 26.2245 11.0237 23.7265 10.4172C22.1128 10.0255 21.347 8.17672 22.2111 6.75866C23.5486 4.56349 21.0365 2.0514 18.8413 3.38894C17.4233 4.25298 15.5745 3.48719 15.1828 1.87351ZM12.8 17.6C15.451 17.6 17.6 15.451 17.6 12.8C17.6 10.149 15.451 8 12.8 8C10.149 8 8 10.149 8 12.8C8 15.451 10.149 17.6 12.8 17.6Z" fill="#6A3EA1"/>
</svg>
