<svg width="26" height="26" viewBox="0 0 26 26" fill="none" xmlns="http://www.w3.org/2000/svg">
<path d="M13.9314 0.468629C13.3065 -0.15621 12.2935 -0.15621 11.6686 0.468629L0.468629 11.6686C-0.15621 12.2935 -0.15621 13.3065 0.468629 13.9314C1.09347 14.5562 2.10653 14.5562 2.73137 13.9314L3.2 13.4627V24C3.2 24.8837 3.91634 25.6 4.8 25.6H8C8.88365 25.6 9.6 24.8837 9.6 24V20.8C9.6 19.9163 10.3163 19.2 11.2 19.2H14.4C15.2837 19.2 16 19.9163 16 20.8V24C16 24.8837 16.7163 25.6 17.6 25.6H20.8C21.6837 25.6 22.4 24.8837 22.4 24V13.4627L22.8686 13.9314C23.4935 14.5562 24.5065 14.5562 25.1314 13.9314C25.7562 13.3065 25.7562 12.2935 25.1314 11.6686L13.9314 0.468629Z" fill="#6A3EA1"/>
</svg>
